<svg xmlns:xlink="http://www.w3.org/1999/xlink" xmlns="http://www.w3.org/2000/svg" xml:space="preserve" width="512px" viewBox="0 0 512 512" version="1.1" id="Calque_1" height="512px"><g><g><g id="XMLID_1_"><g><path fill="#526471" d="M484.59,422.37v9.89c0,7.26-5.88,13.15-13.15,13.15H40.55c-7.26,0-13.14-5.88-13.14-13.15v-9.89      c0-7.26,5.88-13.15,13.14-13.15h14.24h20.52h124.12h0.01l18.09,18.09h76.94l18.09-18.09h124.13h20.52h14.23      C478.7,409.22,484.59,415.1,484.59,422.37z"></path><path opacity="0.2" fill="#FFFFFF" d="M484.59,422.37v9.05c0-7.27-5.89-13.15-13.15-13.15H312.56l-18.09,18.09h-76.94      l-18.09-18.09H40.55c-7.26,0-13.14,5.89-13.14,13.15v-9.05c0-7.26,5.88-13.15,13.14-13.15h158.89l18.09,18.09h76.94l18.09-18.09      h158.88C478.7,409.22,484.59,415.1,484.59,422.37z"></path><path fill="#FFC035" d="M332.5,78.59v44.61h-153V78.59c0-6.62,5.37-12,12-12h129C327.13,66.59,332.5,71.97,332.5,78.59z"></path><path fill="#ECEFF0" d="M476.11,209.26v36.15c0,9.61-7.92,17.75-18.9,20.59c-2.71,0.72-5.61,1.1-8.62,1.1      c-9.06,0-17.11-3.46-22.11-8.79c-3.4-3.61-5.4-8.07-5.4-12.9v-36.15h5.4h30.73H476.11z"></path><path fill="#303C44" d="M379.84,123.2h47.58c16.45,0,29.78,13.33,29.79,29.78v0.01v32.61L407,123.46h-74.5v-0.26H379.84z"></path><path fill="#303C44" d="M117.25,123.2h62.25v0.26H99.38L54.79,185.6v-32.61v-0.01c0.01-16.45,13.34-29.78,29.78-29.78H117.25z"></path><polygon points="457.21,185.6 476.11,209.26 457.21,209.26 426.48,209.26 421.08,209.26 366.05,209.26       311.03,209.26 256,209.26 200.97,209.26 145.95,209.26 90.92,209.26 85.52,209.26 35.89,209.26 54.79,185.6 99.38,123.46       179.5,123.46 332.5,123.46 407,123.46" fill="#DD6475"></polygon><path fill="#C9314B" d="M90.92,209.26v36.15c0,4.83-2.01,9.29-5.4,12.9c-4.05,4.3-10.07,7.39-17.02,8.41      c-1.65,0.25-3.35,0.38-5.09,0.38c-3.01,0-5.91-0.38-8.62-1.1c-10.97-2.84-18.9-10.98-18.9-20.59v-36.15H90.92z"></path><path fill="#ECEFF0" d="M145.95,209.26v36.15c0,11.98-12.32,21.69-27.52,21.69c-15.19,0-27.51-9.71-27.51-21.69v-28.92v-7.23      H145.95z"></path><path fill="#C9314B" d="M200.97,209.26v36.15c0,11.98-12.31,21.69-27.51,21.69c-15.19,0-27.51-9.71-27.51-21.69v-36.15H200.97z"></path><path fill="#ECEFF0" d="M256,209.26v36.15c0,11.98-12.32,21.69-27.51,21.69c-15.2,0-27.52-9.71-27.52-21.69v-36.15H256z"></path><path fill="#C9314B" d="M311.03,209.26v36.15c0,11.98-12.32,21.69-27.52,21.69c-15.19,0-27.51-9.71-27.51-21.69v-36.15H311.03z"></path><path fill="#ECEFF0" d="M366.05,209.26v36.15c0,11.98-12.31,21.69-27.51,21.69c-15.19,0-27.51-9.71-27.51-21.69v-36.15H366.05z"></path><path fill="#C9314B" d="M421.08,209.26v36.15c0,11.98-12.32,21.69-27.51,21.69c-15.2,0-27.52-9.71-27.52-21.69v-36.15H421.08z"></path><path fill="#007ECA" d="M426.48,258.31v121.15H85.52V258.31c3.39-3.61,5.4-8.07,5.4-12.9c0,11.98,12.32,21.69,27.51,21.69      c15.2,0,27.52-9.71,27.52-21.69c0,11.98,12.32,21.69,27.51,21.69c15.2,0,27.51-9.71,27.51-21.69      c0,11.98,12.32,21.69,27.52,21.69c15.19,0,27.51-9.71,27.51-21.69c0,11.98,12.32,21.69,27.51,21.69      c15.2,0,27.52-9.71,27.52-21.69c0,8.94,6.86,16.61,16.65,19.94c3.33,1.12,7,1.75,10.86,1.75c15.2,0,27.51-9.71,27.51-21.69      c0,11.98,12.32,21.69,27.52,21.69c15.19,0,27.51-9.71,27.51-21.69C421.08,250.24,423.08,254.7,426.48,258.31z"></path><path opacity="0.2" fill="#303C44" d="M426.48,258.31v12.9c-3.4-3.61-5.4-8.07-5.4-12.9c0,11.98-12.32,21.69-27.51,21.69      c-15.2,0-27.52-9.71-27.52-21.69c0,11.98-12.31,21.69-27.51,21.69c-3.86,0-7.53-0.63-10.86-1.75      c-9.79-3.33-16.65-11-16.65-19.94c0,11.98-12.32,21.69-27.52,21.69c-15.19,0-27.51-9.71-27.51-21.69      c0,11.98-12.32,21.69-27.51,21.69c-15.2,0-27.52-9.71-27.52-21.69c0,11.98-12.31,21.69-27.51,21.69      c-15.19,0-27.51-9.71-27.51-21.69c0,11.98-12.32,21.69-27.52,21.69c-15.19,0-27.51-9.71-27.51-21.69c0,4.83-2.01,9.29-5.4,12.9      v-12.9c3.39-3.61,5.4-8.07,5.4-12.9c0,11.98,12.32,21.69,27.51,21.69c15.2,0,27.52-9.71,27.52-21.69      c0,11.98,12.32,21.69,27.51,21.69c15.2,0,27.51-9.71,27.51-21.69c0,11.98,12.32,21.69,27.52,21.69      c15.19,0,27.51-9.71,27.51-21.69c0,11.98,12.32,21.69,27.51,21.69c15.2,0,27.52-9.71,27.52-21.69c0,8.94,6.86,16.61,16.65,19.94      c3.33,1.12,7,1.75,10.86,1.75c15.2,0,27.51-9.71,27.51-21.69c0,11.98,12.32,21.69,27.52,21.69c15.19,0,27.51-9.71,27.51-21.69      C421.08,250.24,423.08,254.7,426.48,258.31z"></path><path fill="#303C44" d="M457.21,266v143.22h-20.52H312.56l-18.09,18.09h-76.94l-18.09-18.09h-0.01H75.31H54.79V266      c2.71,0.72,5.61,1.1,8.62,1.1c1.74,0,3.44-0.13,5.09-0.38c6.95-1.02,12.97-4.11,17.02-8.41v121.15h340.96V258.31      c5,5.33,13.05,8.79,22.11,8.79C451.6,267.1,454.5,266.72,457.21,266z"></path><polygon points="457.21,402.55 457.21,409.22 312.56,409.22 294.47,427.31 217.53,427.31 199.44,409.22       54.79,409.22 54.79,402.55 199.44,402.55 217.53,420.64 294.47,420.64 312.56,402.55" opacity="0.2"></polygon></g><g><path fill="none" d="M54.79,409.22H40.55c-7.26,0-13.14,5.89-13.14,13.15v9.89c0,7.27,5.88,13.15,13.14,13.15h430.89      c7.27,0,13.15-5.89,13.15-13.15v-9.89c0-7.27-5.89-13.15-13.15-13.15h-14.23"></path><line y2="409.22" y1="427.31" x2="199.44" x1="217.53" fill="none"></line><line y2="427.31" y1="409.22" x2="294.47" x1="312.56" fill="none"></line><polyline points="427.42,123.2 379.84,123.2 332.5,123.2 179.5,123.2 117.25,123.2 84.57,123.2" fill="none"></polyline><polyline points="199.43,409.22 75.31,409.22 54.79,409.22 54.79,266" fill="none"></polyline><line y2="152.99" y1="185.6" x2="54.79" x1="54.79" fill="none"></line><line y2="152.99" y1="185.6" x2="457.21" x1="457.21" fill="none"></line><polyline points="457.21,266 457.21,409.22 436.69,409.22 312.56,409.22" fill="none"></polyline><path fill="none" d="M54.79,152.99v-0.01c0.01-16.45,13.34-29.78,29.78-29.78"></path><path fill="none" d="M427.42,123.2c16.45,0,29.78,13.33,29.79,29.78v0.01"></path><polyline points="426.48,209.26 421.08,209.26 366.05,209.26 311.03,209.26 256,209.26 200.97,209.26       145.95,209.26 90.92,209.26 85.52,209.26" fill="none"></polyline><polyline points="426.48,258.31 426.48,379.46 85.52,379.46 85.52,258.31" fill="none"></polyline><line y2="427.31" y1="427.31" x2="294.47" x1="217.53" fill="none"></line><polyline points="85.52,209.26 35.89,209.26 54.79,185.6 99.38,123.46 179.5,123.46 332.5,123.46 407,123.46       457.21,185.6 476.11,209.26 457.21,209.26 426.48,209.26" fill="none"></polyline><line y2="245.41" y1="209.26" x2="35.89" x1="35.89" fill="none"></line><path fill="none" d="M35.89,245.41c0,9.61,7.93,17.75,18.9,20.59c2.71,0.72,5.61,1.1,8.62,1.1c1.74,0,3.44-0.13,5.09-0.38      c6.95-1.02,12.97-4.11,17.02-8.41c3.39-3.61,5.4-8.07,5.4-12.9"></path><polyline points="90.92,245.41 90.92,216.49 90.92,209.26" fill="none"></polyline><path fill="none" d="M145.95,245.41c0,11.98-12.32,21.69-27.52,21.69c-15.19,0-27.51-9.71-27.51-21.69"></path><line y2="245.41" y1="209.26" x2="145.95" x1="145.95" fill="none"></line><path fill="none" d="M200.97,245.41c0,11.98-12.31,21.69-27.51,21.69c-15.19,0-27.51-9.71-27.51-21.69"></path><line y2="245.41" y1="209.26" x2="200.97" x1="200.97" fill="none"></line><path fill="none" d="M256,245.41c0,11.98-12.32,21.69-27.51,21.69c-15.2,0-27.52-9.71-27.52-21.69"></path><line y2="245.41" y1="209.26" x2="256" x1="256" fill="none"></line><path fill="none" d="M311.03,245.41c0,11.98-12.32,21.69-27.52,21.69c-15.19,0-27.51-9.71-27.51-21.69"></path><line y2="245.41" y1="209.26" x2="311.03" x1="311.03" fill="none"></line><path fill="none" d="M366.05,245.41c0,11.98-12.31,21.69-27.51,21.69c-15.19,0-27.51-9.71-27.51-21.69"></path><line y2="245.41" y1="209.26" x2="366.05" x1="366.05" fill="none"></line><path fill="none" d="M421.08,245.41c0,11.98-12.32,21.69-27.51,21.69c-15.2,0-27.52-9.71-27.52-21.69"></path><line y2="245.41" y1="209.26" x2="421.08" x1="421.08" fill="none"></line><path fill="none" d="M476.11,245.41c0,9.61-7.92,17.75-18.9,20.59c-2.71,0.72-5.61,1.1-8.62,1.1c-9.06,0-17.11-3.46-22.11-8.79      c-3.4-3.61-5.4-8.07-5.4-12.9"></path><line y2="209.26" y1="245.41" x2="476.11" x1="476.11" fill="none"></line><path fill="none" d="M332.5,123.46v-0.26V78.59c0-6.62-5.37-12-12-12h-129c-6.63,0-12,5.38-12,12v44.61v0.26"></path></g></g></g><rect y="372" x="85.52" width="340.96" opacity="0.2" height="7.46"></rect><linearGradient y2="424.5445" y1="296.1803" x2="348.3914" x1="274.2803" id="SVGID_1_" gradientUnits="userSpaceOnUse"><stop style="stop-color:#000000" offset="0"></stop><stop style="stop-color:#FFFFFF;stop-opacity:0" offset="1"></stop></linearGradient><path opacity="0.2" fill="url(#SVGID_1_)" d="M426.48,258.31v121.15H146.25l181.43-114.11c3.33,1.12,7,1.75,10.86,1.75   c15.2,0,27.51-9.71,27.51-21.69c0,11.98,12.32,21.69,27.52,21.69c15.19,0,27.51-9.71,27.51-21.69   C421.08,250.24,423.08,254.7,426.48,258.31z"></path><linearGradient y2="133.7844" y1="58.2014" x2="314.1674" x1="270.5295" id="SVGID_2_" gradientUnits="userSpaceOnUse"><stop style="stop-color:#000000" offset="0"></stop><stop style="stop-color:#FFFFFF;stop-opacity:0" offset="1"></stop></linearGradient><path opacity="0.2" fill="url(#SVGID_2_)" d="M332.5,78.59v44.61H256V66.59h64.5C327.13,66.59,332.5,71.97,332.5,78.59z"></path><linearGradient y2="257.8038" y1="210.5339" x2="88.4948" x1="61.2035" id="SVGID_3_" gradientUnits="userSpaceOnUse"><stop style="stop-color:#000000" offset="0"></stop><stop style="stop-color:#FFFFFF;stop-opacity:0" offset="1"></stop></linearGradient><path opacity="0.2" fill="url(#SVGID_3_)" d="M90.92,209.26v36.15c0,4.83-2.01,9.29-5.4,12.9c-4.05,4.3-10.07,7.39-17.02,8.41   c-1.65,0.25-3.35,0.38-5.09,0.38v-57.84H90.92z"></path><linearGradient y2="257.8038" y1="210.5339" x2="143.5198" x1="116.2285" id="SVGID_4_" gradientUnits="userSpaceOnUse"><stop style="stop-color:#000000" offset="0"></stop><stop style="stop-color:#FFFFFF;stop-opacity:0" offset="1"></stop></linearGradient><path opacity="0.2" fill="url(#SVGID_4_)" d="M145.945,209.26v36.15c0,4.83-2.01,9.29-5.4,12.9c-4.05,4.3-10.07,7.39-17.02,8.41   c-1.65,0.25-3.35,0.38-5.09,0.38v-57.84H145.945z"></path><linearGradient y2="257.8038" y1="210.5339" x2="198.5448" x1="171.2536" id="SVGID_5_" gradientUnits="userSpaceOnUse"><stop style="stop-color:#000000" offset="0"></stop><stop style="stop-color:#FFFFFF;stop-opacity:0" offset="1"></stop></linearGradient><path opacity="0.2" fill="url(#SVGID_5_)" d="M200.97,209.26v36.15c0,4.83-2.01,9.29-5.4,12.9c-4.05,4.3-10.07,7.39-17.02,8.41   c-1.65,0.25-3.35,0.38-5.09,0.38v-57.84H200.97z"></path><linearGradient y2="257.8038" y1="210.5339" x2="253.5698" x1="226.2786" id="SVGID_6_" gradientUnits="userSpaceOnUse"><stop style="stop-color:#000000" offset="0"></stop><stop style="stop-color:#FFFFFF;stop-opacity:0" offset="1"></stop></linearGradient><path opacity="0.2" fill="url(#SVGID_6_)" d="M255.995,209.26v36.15c0,4.83-2.01,9.29-5.4,12.9c-4.05,4.3-10.07,7.39-17.02,8.41   c-1.65,0.25-3.35,0.38-5.09,0.38v-57.84H255.995z"></path><linearGradient y2="257.8038" y1="210.5339" x2="308.5949" x1="281.3036" id="SVGID_7_" gradientUnits="userSpaceOnUse"><stop style="stop-color:#000000" offset="0"></stop><stop style="stop-color:#FFFFFF;stop-opacity:0" offset="1"></stop></linearGradient><path opacity="0.2" fill="url(#SVGID_7_)" d="M311.02,209.26v36.15c0,4.83-2.01,9.29-5.4,12.9c-4.05,4.3-10.07,7.39-17.02,8.41   c-1.65,0.25-3.35,0.38-5.09,0.38v-57.84H311.02z"></path><linearGradient y2="257.8038" y1="210.5339" x2="363.6199" x1="336.3286" id="SVGID_8_" gradientUnits="userSpaceOnUse"><stop style="stop-color:#000000" offset="0"></stop><stop style="stop-color:#FFFFFF;stop-opacity:0" offset="1"></stop></linearGradient><path opacity="0.2" fill="url(#SVGID_8_)" d="M366.045,209.26v36.15c0,4.83-2.01,9.29-5.4,12.9c-4.05,4.3-10.07,7.39-17.02,8.41   c-1.65,0.25-3.35,0.38-5.09,0.38v-57.84H366.045z"></path><linearGradient y2="257.8038" y1="210.5339" x2="418.6449" x1="391.3537" id="SVGID_9_" gradientUnits="userSpaceOnUse"><stop style="stop-color:#000000" offset="0"></stop><stop style="stop-color:#FFFFFF;stop-opacity:0" offset="1"></stop></linearGradient><path opacity="0.2" fill="url(#SVGID_9_)" d="M421.07,209.26v36.15c0,4.83-2.01,9.29-5.4,12.9c-4.05,4.3-10.07,7.39-17.02,8.41   c-1.65,0.25-3.35,0.38-5.09,0.38v-57.84H421.07z"></path><linearGradient y2="257.8038" y1="210.5339" x2="473.67" x1="446.3787" id="SVGID_10_" gradientUnits="userSpaceOnUse"><stop style="stop-color:#000000" offset="0"></stop><stop style="stop-color:#FFFFFF;stop-opacity:0" offset="1"></stop></linearGradient><path opacity="0.2" fill="url(#SVGID_10_)" d="M476.095,209.26v36.15c0,4.83-2.01,9.29-5.4,12.9c-4.05,4.3-10.07,7.39-17.02,8.41   c-1.65,0.25-3.35,0.38-5.09,0.38v-57.84H476.095z"></path></g></svg>