<svg xmlns:xlink="http://www.w3.org/1999/xlink" xmlns="http://www.w3.org/2000/svg" xml:space="preserve" viewBox="0 0 128 128" version="1.1"><g id="Layer_1"><rect y="-731" x="-539.984" width="727.938" opacity="0" height="1520" fill="#F4F5F5"></rect></g><g id="Layer_2"><g><circle r="64" fill="#F54F33" cy="64" cx="64"></circle><g><defs><circle r="64" id="SVGID_31_" cy="64" cx="64"></circle></defs><clipPath id="SVGID_2_"><use xlink:href="#SVGID_31_" overflow="visible"></use></clipPath><polygon points="20.161,96.119 52.036,128 128,128 128,52.536 108.115,32.622" fill="#DD2C24" clip-path="url(#SVGID_2_)"></polygon></g><path fill="#FFFFFF" d="M104.944,96.947H23.056c-2.209,0-4-1.791-4-4V35.053c0-2.209,1.791-4,4-4h81.888c2.209,0,4,1.791,4,4    v57.894C108.944,95.156,107.153,96.947,104.944,96.947z"></path><g><path fill="#E1E3E9" d="M108.944,42.054v-7.001c0-2.209-1.791-4-4-4H23.056c-2.209,0-4,1.791-4,4v7.001H108.944z"></path></g><circle r="3" fill="#F24B45" cy="36.553" cx="25"></circle><circle r="3" fill="#FFB202" cy="36.553" cx="34"></circle><circle r="3" fill="#4CBB41" cy="36.553" cx="43.001"></circle><g><defs><path id="SVGID_33_" d="M104.944,96.947H23.056c-2.209,0-4-1.791-4-4V35.053c0-2.209,1.791-4,4-4h81.888c2.209,0,4,1.791,4,4      v57.894C108.944,95.156,107.153,96.947,104.944,96.947z"></path></defs><clipPath id="SVGID_4_"><use xlink:href="#SVGID_33_" overflow="visible"></use></clipPath><polygon points="30.866,70.855 57.438,97.5 110,97.5 110,79.563      97.134,66.663 84.469,63.719 71.795,51.056 64.376,67.188 53.475,56.3 31.937,68.83" opacity="0.8" fill="#E1E3E9" clip-path="url(#SVGID_4_)"></polygon></g><g><path fill="#53899F" d="M30.866,66.804L53.475,56.3v4.993l-17.099,7.49v0.094l17.099,7.489v4.993L30.866,70.855V66.804z"></path><path fill="#53899F" d="M56.958,85.206l10.08-34.15h4.758l-10.081,34.15H56.958z"></path><path fill="#53899F" d="M97.134,70.997L74.525,81.359v-4.993L92,68.877v-0.094l-17.476-7.49V56.3l22.609,10.363V70.997z"></path></g></g></g></svg>